HIERARCHY
ROOT Hips
{
	OFFSET 0.00000 0.00000 0.00000
	CHANNELS 6 Xposition Yposition Zposition Zrotation Yrotation Xrotation 
	JOINT LHipJoint
	{
		OFFSET 0 0 0
		CHANNELS 3 Zrotation Yrotation Xrotation
		JOINT LeftHip
		{
			OFFSET 1.62964 -1.40469 0.78906
			CHANNELS 3 Zrotation Yrotation Xrotation
			JOINT LeftKnee
			{
				OFFSET 2.29640 -6.30932 0.00000
				CHANNELS 3 Zrotation Yrotation Xrotation
				JOINT LeftAnkle
				{
					OFFSET 2.29451 -6.30412 0.00000
					CHANNELS 3 Zrotation Yrotation Xrotation
					JOINT LeftToe
					{
						OFFSET 0.03611 -0.09921 1.56387
						CHANNELS 3 Zrotation Yrotation Xrotation
						End Site
						{
							OFFSET 0.00000 -0.00000 0.80291
						}
					}
				}
			}
		}
	}
	JOINT RHipJoint
	{
		OFFSET 0 0 0
		CHANNELS 3 Zrotation Yrotation Xrotation
		JOINT RightHip
		{
			OFFSET -1.73712 -1.40469 0.78906
			CHANNELS 3 Zrotation Yrotation Xrotation
			JOINT RightKnee
			{
				OFFSET -2.28137 -6.26801 0.00000
				CHANNELS 3 Zrotation Yrotation Xrotation
				JOINT RightAnkle
				{
					OFFSET -2.28681 -6.28298 0.00000
					CHANNELS 3 Zrotation Yrotation Xrotation
					JOINT RightToe
					{
						OFFSET -0.15927 -0.43759 1.61103
						CHANNELS 3 Zrotation Yrotation Xrotation
						End Site
						{
							OFFSET -0.00000 -0.00000 0.84630
						}
					}
				}
			}
		}
	}
	JOINT lowerback
	{
		OFFSET 0 0 0
		CHANNELS 3 Zrotation Yrotation Xrotation
		JOINT Chest
		{
			OFFSET -0.04227 2.04338 -0.00225
			CHANNELS 3 Zrotation Yrotation Xrotation
			JOINT Chest2
			{
				OFFSET -0.02148 2.04482 -0.04273
				CHANNELS 3 Zrotation Yrotation Xrotation
				JOINT lowerneck
				{
					OFFSET 0 0 0
					CHANNELS 3 Zrotation Yrotation Xrotation
					JOINT Neck
					{
						OFFSET 0.09180 1.44629 0.19359
						CHANNELS 3 Zrotation Yrotation Xrotation
						JOINT Head
						{
							OFFSET 0.00887 1.40645 0.14750
							CHANNELS 3 Zrotation Yrotation Xrotation
							End Site
							{
								OFFSET -0.00669 1.50671 0.03707
							}
						}
					}
				}
				JOINT LeftCollar
				{
					OFFSET 0 0 0
					CHANNELS 3 Zrotation Yrotation Xrotation
					JOINT LeftShoulder
					{
						OFFSET 2.17674 1.86763 -0.06520
CHANNELS 3 Zrotation Xrotation Yrotation
						JOINT LeftElbow
						{
OFFSET 0 -4.657760 0.000000
CHANNELS 3 Zrotation Xrotation Yrotation
							JOINT LeftWrist
							{
OFFSET 0 -3.555390 0.000000
CHANNELS 3 Zrotation Xrotation Yrotation
								JOINT lhand
								{
									OFFSET 0 0 0
CHANNELS 3 Zrotation Xrotation Yrotation
									JOINT LFingers
									{
OFFSET 0 -0.707260 0.000000
CHANNELS 3 Zrotation Xrotation Yrotation
										End Site
										{
OFFSET 0 -0.570220 0.000000
										}
									}
								}
								JOINT LThumb
								{
OFFSET 0 0.000000 0.000000
CHANNELS 3 Zrotation Xrotation Yrotation
									End Site
									{
OFFSET 0 -0.578920 0.578920
									}
								}
							}
						}
					}
				}
				JOINT RightCollar
				{
					OFFSET 0 0 0
					CHANNELS 3 Zrotation Yrotation Xrotation
					JOINT RightShoulder
					{
						OFFSET -2.80694 1.55459 -0.32496
CHANNELS 3 Zrotation Xrotation Yrotation
						JOINT RightElbow
						{
OFFSET 0 -4.719250 -0.000000
CHANNELS 3 Zrotation Xrotation Yrotation
							JOINT RightWrist
							{
OFFSET 0 -3.569900 0.000000
CHANNELS 3 Zrotation Xrotation Yrotation
								JOINT rhand
								{
									OFFSET 0 0 0
CHANNELS 3 Zrotation Xrotation Yrotation
									JOINT RFingers
									{
OFFSET 0 -0.507760 0.000000
CHANNELS 3 Zrotation Xrotation Yrotation
										End Site
										{
OFFSET 0 -0.409370 0.000000
										}
									}
								}
								JOINT RThumb
								{
OFFSET 0 0.000000 0.000000
CHANNELS 3 Zrotation Xrotation Yrotation
									End Site
									{
OFFSET 0 -0.415620 0.415620
									}
								}
							}
						}
					}
				}
			}
		}
	}
}
MOTION
Frames: 4
Frame Time: 0.008333333333333333
16.287914 15.936567 18.185081 170.097534 -2.266367 -168.262394 0.000000 0.000000 0.000000 -0.542420 -20.146738 -68.331690 4.685348 13.020133 39.444438 0.107339 4.016095 6.059156 2.607076 -10.029927 -29.073964 0.000000 0.000000 0.000000 16.296429 11.218757 -1.064367 -1.675491 -8.154602 23.184689 -2.987773 1.007985 -32.500591 -2.489197 9.816974 -28.387089 -6.301355 -1.971644 -24.329778 -0.720808 -0.722879 2.339254 2.483130 -0.898617 16.623100 -1.116763 3.266171 -1.927881 -0.032714 3.248761 19.822440 0.309282 0.949396 6.300462 0.000000 0.000000 0.000000 4.740380 3.989644 -18.992149 11.306933 -18.757152 1.873450 21.765505 0.802015 12.939173 0.000000 0.000000 0.000000 -7.125000 0.000000 0.000000 -3.821019 16.104985 -2.617005 0.000000 0.000000 0.000000 -1.298039 5.290131 9.105861 -18.909421 -29.304953 -4.986974 -15.097862 10.441830 55.456678 0.000000 0.000000 0.000000 7.125000 0.000000 0.000000 76.425212 77.031036 -63.597812
16.256894 15.926432 18.121254 170.082125 -2.166383 -168.270681 0.000000 0.000000 0.000000 -0.500683 -20.144178 -68.089052 4.591743 12.908533 39.027385 0.121737 4.169692 6.425789 2.583268 -9.987785 -28.937216 0.000000 0.000000 0.000000 16.180444 11.205642 -0.885219 -1.692091 -8.192855 23.301399 -3.013075 1.285271 -32.565365 -2.428283 9.706124 -28.030331 -6.216712 -1.905446 -24.478334 -0.760647 -0.643157 2.351209 2.416182 -0.856315 16.715518 -1.026577 3.262734 -1.891667 0.014402 3.210020 19.935908 0.306373 0.932682 6.331320 0.000000 0.000000 0.000000 4.776212 4.098284 -19.144179 11.370937 -18.854554 1.894076 21.642060 0.719186 12.956178 0.000000 0.000000 0.000000 -7.125000 0.000000 0.000000 -3.906993 16.099201 -2.676688 0.000000 0.000000 0.000000 -1.208619 5.357991 9.110942 -19.219550 -29.690509 -5.139163 -14.040423 10.626802 59.504711 0.000000 0.000000 0.000000 7.125000 0.000000 0.000000 89.012748 23.120724 -16.226762
16.226448 15.915000 18.059197 170.095554 -2.120285 -168.297299 0.000000 0.000000 0.000000 -0.501680 -20.139001 -67.883025 4.512831 12.813103 38.672975 0.144008 4.232314 6.924199 2.626750 -10.064042 -29.184984 0.000000 0.000000 0.000000 16.132928 11.196791 -0.652045 -1.700291 -8.211630 23.358813 -2.995630 1.337654 -32.454300 -2.507085 9.849380 -28.491447 -6.103658 -1.862168 -24.514950 -0.779856 -0.614791 2.342838 2.339475 -0.832291 16.721357 -1.107063 3.287379 -1.846534 0.225333 3.197948 20.020727 0.385389 0.930291 6.345031 0.000000 0.000000 0.000000 4.772725 4.245705 -19.235366 11.435637 -18.952921 1.915053 21.585953 0.725009 12.901699 0.000000 0.000000 0.000000 -7.125000 0.000000 0.000000 -3.943478 16.162871 -2.696573 0.000000 0.000000 0.000000 -1.138075 5.407827 9.211069 -19.313176 -29.805982 -5.185588 -12.776610 9.497571 60.505997 0.000000 0.000000 0.000000 7.125000 0.000000 0.000000 87.172904 -37.517367 52.501377
16.195835 15.902966 17.998808 170.181307 -2.125342 -168.294890 0.000000 0.000000 0.000000 -0.445102 -20.133181 -67.779243 4.458966 12.747308 38.429729 0.168155 4.288162 7.434247 2.730876 -10.246014 -29.777163 0.000000 0.000000 0.000000 16.173190 11.173201 -0.414210 -1.701900 -8.215378 23.370270 -2.954121 1.204594 -32.258484 -2.671597 10.142513 -29.440190 -5.913627 -1.831707 -24.515394 -0.760844 -0.635949 2.308877 2.245685 -0.823233 16.677456 -1.256370 3.324918 -1.753814 0.387890 3.223074 20.024517 0.461815 0.940394 6.324126 0.000000 0.000000 0.000000 4.734727 4.411274 -19.351952 11.467055 -19.000667 1.925252 21.781567 0.737530 12.602789 0.000000 0.000000 0.000000 -7.125000 0.000000 0.000000 -3.795897 16.461820 -2.570545 0.000000 0.000000 0.000000 -1.123795 5.429843 9.582928 -19.292813 -29.780836 -5.175515 -12.929561 8.386442 59.254550 0.000000 0.000000 0.000000 7.125000 0.000000 0.000000 92.351187 76.355794 -78.540428
